<?xml version="1.0" standalone="no"?>
<!DOCTYPE svg PUBLIC "-//W3C//DTD SVG 1.1//EN" "http://www.w3.org/Graphics/SVG/1.1/DTD/svg11.dtd" >
<svg xmlns="http://www.w3.org/2000/svg" xmlns:xlink="http://www.w3.org/1999/xlink" version="1.1">
<metadata></metadata>
<defs>
<font id="youtube_starregular" horiz-adv-x="1014" >
<font-face units-per-em="2048" ascent="1638" descent="-410" />
<missing-glyph horiz-adv-x="508" />
<glyph horiz-adv-x="0" />
<glyph unicode="&#xd;" horiz-adv-x="508" />
<glyph unicode=" "  horiz-adv-x="508" />
<glyph unicode="&#x09;" horiz-adv-x="508" />
<glyph unicode="&#xa0;" horiz-adv-x="508" />
<glyph unicode="!" horiz-adv-x="524" d="M30 1438q42 31 199.5 48t214.5 -11q-7 -121 -34 -472t-27 -637q-207 -72 -283 -52q-14 167 -37 399t-33 725zM45 85q-11 69 40 122.5t128 65.5q74 11 138 -13.5t79 -114.5q10 -69 -41 -122.5t-128 -65.5q-74 -11 -138.5 15t-77.5 113zM141 874q27 -68 61 14 q-24 362 29 460q35 18 112 63q17 13 -3 26q-118 -7 -187 -39q-59 -52 -12 -524z" />
<glyph unicode="&#x22;" horiz-adv-x="763" d="M38 1437q35 34 155 39t146 -48q-10 -260 -40 -428q-42 -25 -114.5 -22.5t-102.5 22.5q-51 215 -44 437zM101 1301q22 -48 58 -2q17 38 100 88q32 22 -4 36q-103 24 -146 -24q-27 -51 -8 -98zM392 1437q35 34 155 39t145 -48q-10 -260 -39 -428q-43 -25 -115 -22.5 t-103 22.5q-50 215 -43 437zM460 1301q22 -48 58 -2q17 38 100 88q32 22 -4 36q-103 24 -146 -24q-27 -51 -8 -98z" />
<glyph unicode="#" horiz-adv-x="1315" d="M40.5 471q10.5 148 42.5 183q95 -1 132 -1q1 31 4 94q-36 0 -137 4q-28 44 -9.5 198.5t50.5 173.5q83 -7 116 -8q7 100 19 277q22 41 165 63t211 -18q-15 -208 -22 -315q19 1 90 2q10 124 34 296q39 37 183 38t192 -29q-17 -198 -26 -303q19 0 96 -1q40 -22 47.5 -163.5 t-26.5 -209.5q-107 1 -145 2q-3 -58 -5 -94q35 -2 126 -11q29 -42 21 -184t-34 -190q-100 4 -133 4q-6 -113 -21 -293q-34 -28 -185.5 -27t-183.5 42q13 177 19 285q-58 1 -92 1q-7 -116 -25 -303q-41 -34 -199 -22t-171 50q21 163 27 270q-41 0 -148 2q-23 39 -12.5 187z M328 1282q22 -48 58 -2q17 38 100 88q32 22 -4 36q-103 24 -146 -24q-27 -51 -8 -98zM584 660q20 1 78 4q25 1 16 1q1 28 3 89q0 20 -1 1q-18 0 -64 -1q-30 -2 -28 -2q-1 -27 -4 -78q0 -27 0 -14zM809 1274q22 -48 58 -2q17 38 100 88q32 22 -4 36q-103 24 -146 -24 q-27 -51 -8 -98z" />
<glyph unicode="$" horiz-adv-x="921" d="M34.5 141q-4.5 105 39.5 139q350 -24 378 -21q42 156 6 274q-325 36 -369 143q-48 262 -48 527q3 89 46 156q104 87 425 118q191 13 285 -62q25 -38 27.5 -153t-28.5 -131q-284 38 -383 0q-30 -115 3 -206q11 -38 221 -64q136 -48 181 -186q24 -196 -5 -544 q-27 -133 -195 -181q-348 -1 -555 70q-24 16 -28.5 121zM127 1053q38 -66 68 5q0 139 71 202q57 43 240 92q71 30 0 52q-226 -24 -349 -98q-65 -57 -30 -253zM274 1599q47 15 175 14.5t165 -20.5q8 -72 10 -149q-22 -22 -314 -29l-29 17q-2 75 -7 167zM282 56q47 20 175 19 t164 -26q14 -96 10 -200q-21 -30 -313 -39l-29 22q-2 101 -7 224zM408 114q152 -8 193 117q-11 77 -65 63q-17 -112 -109 -117q-60 -6 -19 -63z" />
<glyph unicode="%" horiz-adv-x="1210" d="M48 1375q8 51 82 82q138 24 297 -7q55 -36 53 -90q3 -197 -17 -313q-22 -51 -68 -65q-132 -38 -261 -21q-60 12 -82 79q-21 175 -4 335zM113 1160q20 -20 35 -2q1 48 28 145q14 69 165 61q24 3 18 14t-19 19q-118 32 -212 -9q-36 -23 -15 -228zM132 21q133 302 219 570 q65 204 297 804q26 63 176 72t216 -37q-199 -508 -293 -767q-91 -282 -254 -685q-41 -27 -195.5 -24t-165.5 67zM247 1284q-9 -78 18 -136q1 -1 0 -2q5 76 -9 134q-8 5 -9 4zM387.5 470q4.5 -25 19.5 -29q16 -5 33.5 13t26.5 48q10 31 5.5 56t-19.5 29q-16 5 -33.5 -13 t-26.5 -48q-10 -31 -5.5 -56zM450 646q2 -51 57 6q150 370 294 622q24 59 109 89q25 8 2 27q-86 39 -166 -41q-166 -246 -296 -703zM691 378q8 50 83 82q139 24 299 -7q55 -36 53 -91q3 -198 -17 -314q-22 -51 -68 -65q-133 -39 -263 -22q-60 13 -82 80q-21 176 -5 337z M759 162q20 -20 35 -2q1 48 28 145q14 69 165 61q24 3 18 14t-19 19q-118 32 -212 -9q-36 -23 -15 -228zM892 286q-9 -78 18 -137v-2q5 77 -9 135q-8 5 -9 4z" />
<glyph unicode="&#x26;" horiz-adv-x="1312" d="M51 666q12 52 117 112q-10 9 -35 52q-17 54 -28.5 225t33.5 362q27 38 142 52.5t322.5 -1t243.5 -51.5q46 -188 31 -511q-8 -39 -104 -136q33 -37 71 -78q32 34 118 98q51 18 122.5 -69.5t52.5 -144.5l-102 -125q25 -33 173 -336q39 -61 -70 -109t-169 -35 q-109 176 -148 212q-151 -189 -229 -207q-115 -25 -266.5 13.5t-244.5 133.5q-51 264 -30 543zM192 1020q30 -33 54 -7q1 90 44 239q22 105 343 100q37 2 27.5 19.5t-28.5 31.5q-271 41 -418 -14q-55 -33 -22 -369zM396 525q-21 -78 7 -183q7 -4 30 8q123 94 131 102 q-31 42 -110 111q-22 -11 -58 -38zM435 1008q17 -32 82 -61q27 12 37 30q9 115 0 210q4 -5 -56 -5t-54 7q-14 -103 -9 -181z" />
<glyph unicode="'" horiz-adv-x="494" d="M32 1383q11 61 108 106q115 24 213 -4q44 -23 53 -128.5t-123 -340.5q-60 -52 -151 -44q-64 5 -60.5 70.5t11 104t-22.5 81.5t-28 155zM119 1260q22 -48 58 -2q17 86 100 136q32 22 -4 36q-103 24 -146 -24q-27 -51 -8 -146z" />
<glyph unicode="(" horiz-adv-x="705" d="M66.5 445q-36.5 245 6 536t92.5 398q99 268 220 369q63 9 147.5 -49.5t88.5 -112.5q-118 -300 -147 -598t3.5 -555t145.5 -574q4 -57 -83.5 -117.5t-140.5 -44.5q-120 117 -228 347q-68 156 -104.5 401zM146 773q23 -110 58 -18q17 341 192 715q40 109 135 115q25 8 8 25 q-60 58 -126 46q-212 -207 -267 -883z" />
<glyph unicode=")" horiz-adv-x="706" d="M34 -141q113 317 145.5 574t3.5 555t-147 598q4 54 88.5 112.5t146.5 49.5q122 -101 220 -369q51 -107 93.5 -398t6 -536t-104.5 -401q-108 -230 -228 -347q-53 -16 -140.5 44.5t-83.5 117.5zM106 1623q-15 -56 13 -97q32 -43 57 10q9 41 79 107q27 29 -12 35 q-105 1 -137 -55z" />
<glyph unicode="*" horiz-adv-x="937" d="M48 1154q-18 44 26.5 119.5t99.5 92.5q108 -21 106 -20q0 6 39 167q27 35 113 31t121 -30q45 -135 49 -177q42 20 163 27q47 -28 64.5 -86t27.5 -100q-136 -137 -155 -146q19 -19 118 -179q-7 -52 -81 -108t-119 -53q-108 101 -177 170q-61 -72 -128 -158 q-54 -27 -128.5 36.5t-100.5 112.5q59 122 107 169q-36 22 -145 132zM361 1359q20 -42 52 -1q15 33 89 78q28 19 -4 32q-92 21 -130 -21q-24 -46 -7 -88z" />
<glyph unicode="+" horiz-adv-x="807" d="M38.5 709.5q8.5 126.5 41.5 159.5h129q1 61 14 149q38 38 164.5 29.5t159.5 -41.5v-129q29 0 136 -1q44 -21 44 -174.5t-51 -165.5q-77 2 -121 1q0 -28 -1 -134q-21 -44 -174.5 -44t-165.5 51q2 77 2 121q-61 1 -148 14q-38 38 -29.5 164.5zM273 867q22 -48 58 -2 q17 38 100 88q32 22 -4 36q-103 24 -146 -24q-27 -51 -8 -98z" />
<glyph unicode="," horiz-adv-x="494" d="M32 149q11 61 108 106q115 24 213 -4q44 -23 53 -128.5t-123 -340.5q-60 -52 -151 -44q-64 5 -60.5 70.5t11 104t-22.5 81.5t-28 155zM124 35q22 -48 58 -2q17 86 100 136q32 22 -4 36q-103 24 -146 -24q-27 -51 -8 -146z" />
<glyph unicode="-" horiz-adv-x="807" d="M38.5 709.5q8.5 126.5 41.5 159.5q47 18 306 19.5t297 -12.5q44 -21 44 -174.5t-51 -165.5q-139 4 -309 -3t-299 12q-38 38 -29.5 164.5zM103 744q3 -80 21 -107q20 -16 37 14q13 67 73 100q95 22 292 31q64 7 61.5 20.5t-40.5 24.5q-240 15 -414 -3q-30 -25 -30 -80z " />
<glyph unicode="." horiz-adv-x="514" d="M41 85q-11 69 40 122.5t128 65.5q74 11 138.5 -13.5t78.5 -114.5q10 -69 -41 -122.5t-128 -65.5q-74 -11 -138.5 15t-77.5 113zM127 104q22 -48 58 -2q17 38 100 88q32 22 -4 36q-103 24 -146 -24q-27 -51 -8 -98z" />
<glyph unicode="/" horiz-adv-x="868" d="M30 19q101 300 159 568q43 204 223 841q27 37 168 42t208 -37q-144 -508 -211 -767q-61 -282 -183 -686q-41 -30 -199 -18t-165 57zM223.5 399q3.5 -25 18.5 -30t33.5 12.5t28.5 47.5t7 55t-19 30q-15 6 -33 -11.5t-29 -48.5q-10 -30 -6.5 -55zM293 594q8 -50 57 13 q106 385 219 652q17 61 98 101q24 10 -1 26q-126 29 -150 -26q-146 -297 -223 -766z" />
<glyph unicode="0" horiz-adv-x="953" d="M42 915q41 368 97 478q18 47 77 67q262 68 415 7q56 -19 87 -61q70 -112 133 -461q22 -455 -55 -807q-38 -112 -161 -168q-339 -72 -452 12q-92 78 -131 410l2 1q-24 270 -12 522zM121 738q26 -85 53 16q45 378 115 517q79 101 202 109q63 2 -6 58q-191 24 -284 -98 q-123 -240 -80 -602zM362 891q-29 -239 19 -447q12 -52 33 -100q31 -56 63 33q55 136 48 414q0 261 -73 366q-22 28 -35 5q-38 -124 -55 -271zM376 192q-5 -46 84 -26q112 23 114 134q-27 41 -47 7q-34 -47 -86 -57q-59 -8 -65 -58zM557 408q0 -19 7.5 -33t18.5 -15 q12 0 20.5 13t9.5 32q1 20 -6.5 34t-18.5 14q-12 1 -21 -12.5t-10 -32.5z" />
<glyph unicode="1" horiz-adv-x="811" d="M30 1046q153 236 254 375q41 41 94 45q108 10 315 -3q33 -3 33 -42q5 -455 -10.5 -742.5t-26.5 -667.5q-15 -56 -147 -67t-155 26q2 528 -11 1031q-43 -35 -159 -92q-66 -8 -187 137zM173 1105q-17 -65 83 -12q137 153 258 225q128 32 89 73q-155 21 -213 -3 q-111 -88 -217 -283z" />
<glyph unicode="2" horiz-adv-x="1004" d="M32 318q65 172 447 579q94 109 40 256q-65 33 -186 -37q-8 -81 8 -183q-19 -56 -128 -63t-140 35q-43 242 -31 433q12 68 231.5 123t446.5 -2q142 -46 186 -271q19 -290 -176.5 -482t-305.5 -390q90 -6 421 6q56 -32 45.5 -174.5t-49.5 -194.5q-758 10 -778 50 q-28 90 -31 315zM123 1111q37 -54 47 13q40 181 272 229q79 16 173 16q50 11 -48 42q-245 24 -399 -63q-75 -67 -45 -237zM581.5 221q0.5 -16 34.5 -26q89 -4 189 13q37 35 1 51q-97 25 -198 -3q-27 -19 -26.5 -35z" />
<glyph unicode="3" horiz-adv-x="950" d="M30 1300q42 103 212 165q175 45 501 -17q129 -125 95 -511q-6 -65 -46 -99q29 -37 65 -136q3 -419 -66 -692q-47 -47 -190.5 -57t-500.5 21q-47 131 -67 356q13 49 136 69.5t168 -11.5l46 -137q22 -12 68 17.5t60 327.5q-15 26 -108 8q-53 0 -84 110t-6 214 q156 17 208 69q40 90 -24 173q-92 19 -155 2q-5 -81 1 -161q-8 -57 -128.5 -63.5t-147.5 43.5q-28 157 -37 309zM104 166q14 -42 44 17q17 64 117 151q40 14 5 31q-98 -3 -152 -59q-31 -42 -14 -140zM122 1111q33 -54 42 13q15 207 243 229q71 16 155 16q45 11 -43 42 q-219 24 -357 -63q-67 -67 -40 -237zM381 840q-12 -44 78 -39q115 5 134 112q-19 46 -44 16q-41 -42 -94 -43q-59 2 -74 -46z" />
<glyph unicode="4" horiz-adv-x="978" d="M37 506q-7 89 10 230q115 331 396 720q40 19 169.5 15t168.5 -37q-253 -541 -338 -731q312 11 447 -26q10 -79 -4.5 -163.5t-34.5 -138.5q-92 -4 -124 -5q-10 -130 -30 -378q-42 -35 -153 -36.5t-142 37.5q-23 199 -31 372q-128 -1 -302 5q-25 47 -32 136zM185 835 q-3 -51 58 0q112 226 280 463q29 56 154 77q26 5 5 26q-119 48 -207 -23q-189 -229 -290 -543zM560.5 630q-0.5 -16 26.5 -35q101 -28 198 -3q36 16 -1 51q-100 17 -189 13q-34 -10 -34.5 -26z" />
<glyph unicode="5" horiz-adv-x="967" d="M37 765q-7 361 12 656q43 29 215.5 37.5t568.5 0.5q39 -39 31.5 -174t-50.5 -166q-375 5 -447 -13q-8 -79 -8 -70q3 4 84 32q154 33 361 -20q75 -49 79 -347t-55 -670q-19 -56 -194.5 -68t-432.5 11q-157 97 -141 413q-5 52 125 68t178 -20q-8 -143 37 -199 q90 -15 102 -9q40 298 15 600q-7 5 -39 -5q-81 -48 -165 -168q-22 -58 -138.5 7t-137.5 104zM115 1297q3 -93 24 -125q24 -19 43 16q16 79 85 117q111 26 351 45q74 8 71.5 24t-47.5 29q-290 8 -492 -13q-35 -29 -35 -93zM126 216q13 -43 42 14q2 98 111 143q38 11 5 30 q-134 -4 -156 -40q-29 -43 -2 -147z" />
<glyph unicode="6" horiz-adv-x="947" d="M42 915q28 453 122 498q314 94 525 33q125 -87 119 -450l-335 -19q12 134 -24 193q-19 15 -32 -8q-38 -124 -59 -290q96 34 314 43q110 -29 145 -148q52 -379 -3 -629q-30 -94 -161 -168q-208 -35 -470 12q-92 78 -131 410l2 1q-24 270 -12 522zM115 703q26 -85 53 16 q45 378 115 517q79 101 202 109q63 2 -6 58q-191 24 -284 -98q-123 -240 -80 -602zM360 596q-4 -75 13 -173q25 -69 41 -115q38 -22 61 15q34 105 30 239q-6 63 -34 69q-47 -7 -111 -35zM376 192q-5 -46 84 -26q112 23 114 134q-27 41 -47 7q-34 -47 -86 -57q-59 -8 -65 -58 z" />
<glyph unicode="7" horiz-adv-x="941" d="M40.5 1212q-10.5 156 28.5 201q273 73 742 53q54 -71 21 -382q-210 -718 -392 -1097q-30 -25 -138 -25t-144 39q162 542 266 1050q-122 2 -322 -15q-51 20 -61.5 176zM112 1275q3 -93 24 -124q24 -18 43 18q16 80 85 121q111 31 415 65q74 11 71.5 27t-47.5 27 q-387 18 -556 -39q-35 -31 -35 -95z" />
<glyph unicode="8" horiz-adv-x="955" d="M36 123q-6 350 33 552q19 54 64 56q-43 26 -51 61q-34 270 -4 537q13 75 138 122q244 39 529 -12q86 -51 85 -135q6 -329 -22 -497q-17 -34 -51 -50q62 -14 75 -68q43 -308 11 -593q-16 -77 -147 -127q-264 -39 -569 13q-92 52 -91 141zM156 942q30 -31 54 -4 q6 150 49 302q22 107 354 91q37 4 27.5 21t-28.5 30q-282 55 -429 -10q-55 -36 -27 -430zM400 1142q-23 -180 32 -239q31 -9 49 2q31 160 0 239q-54 15 -81 -2zM404 503q-13 -124 19 -245q13 -10 53 -3q38 7 41 37q25 84 4 205q-4 53 -45 63q-67 11 -72 -57z" />
<glyph unicode="9" horiz-adv-x="947" d="M63 658q-52 379 3 629q38 121 161 168q154 54 470 -12q86 -50 131 -410l-2 -1q24 -270 12 -522q-28 -453 -122 -498q-314 -94 -525 -33q-106 74 -118 347q-2 89 70 109l264 13q7 -60 43 -119q19 -15 32 8q19 50 40 216q-96 -34 -314 -43q-110 29 -145 148zM145 703 q32 -85 52 16q19 378 79 517q72 101 195 109q62 2 -11 58q-192 24 -277 -98q-106 -240 -38 -602zM154 208q13 -43 42 14q2 98 111 143q38 11 5 30q-134 -4 -156 -40q-29 -43 -2 -147zM375 863q6 -63 34 -69q47 7 111 35q4 75 -13 173q-25 69 -41 115q-38 22 -61 -15 q-34 -105 -30 -239z" />
<glyph unicode=":" horiz-adv-x="514" d="M41 85q-11 69 40 122.5t128 65.5q74 11 138.5 -13.5t78.5 -114.5q10 -69 -41 -122.5t-128 -65.5q-74 -11 -138.5 15t-77.5 113zM41 491q-11 69 40 122.5t128 65.5q74 11 138.5 -13.5t78.5 -114.5q10 -69 -41 -122.5t-128 -65.5q-74 -11 -138.5 15t-77.5 113zM127 104 q22 -48 58 -2q17 38 100 88q32 22 -4 36q-103 24 -146 -24q-27 -51 -8 -98zM127 504q22 -48 58 -2q17 38 100 88q32 22 -4 36q-103 24 -146 -24q-27 -51 -8 -98z" />
<glyph unicode=";" horiz-adv-x="514" d="M41 491q-11 69 40 122.5t128 65.5q74 11 138.5 -13.5t78.5 -114.5q10 -69 -41 -122.5t-128 -65.5q-74 -11 -138.5 15t-77.5 113zM45 149q11 61 107 106q115 24 213 -4q45 -23 53.5 -128.5t-123.5 -340.5q-60 -52 -151 -44q-63 5 -59.5 70.5t10.5 104t-23 81.5t-27 155z M127 496q22 -48 58 -2q17 38 100 88q32 22 -4 36q-103 24 -146 -24q-27 -51 -8 -98zM129 82q22 -48 58 -2q17 38 100 88q32 22 -4 36q-103 24 -146 -24q-27 -51 -8 -98z" />
<glyph unicode="&#x3c;" />
<glyph unicode="=" horiz-adv-x="807" d="M38.5 529.5q8.5 126.5 41.5 159.5q248 0 313 5t290 2q44 -21 44 -174.5t-51 -165.5q-139 4 -309 -3t-299 12q-38 38 -29.5 164.5zM38.5 959.5q8.5 126.5 41.5 159.5q248 0 313 5t290 2q44 -21 44 -174.5t-51 -165.5q-139 4 -309 -3t-299 12q-38 38 -29.5 164.5zM109 996 q3 -80 21 -107q20 -16 37 14q13 67 73 100q95 22 292 31q64 7 61.5 20.5t-40.5 24.5q-240 15 -414 -3q-30 -25 -30 -80zM118 555q3 -80 21 -107q20 -16 37 14q13 67 73 100q95 22 292 31q64 7 61.5 20.5t-40.5 24.5q-240 15 -414 -3q-30 -25 -30 -80z" />
<glyph unicode="&#x3e;" />
<glyph unicode="?" horiz-adv-x="1032" d="M49 1336q15 104 127 135q355 50 718 -12q54 -29 56 -231t-39 -403q-6 -58 -137.5 -132.5t-139.5 -306.5q-5 -54 -142 -71.5t-163 31.5q-80 353 124 503q174 92 150 317q-7 11 -89.5 17.5t-91.5 -8.5q-11 -112 -8 -231q-13 -48 -148.5 -83t-196.5 2q-39 263 -20 473z M147 1046q30 -31 54 -4q6 64 49 216q22 107 443 102q37 4 27.5 21t-28.5 30q-371 44 -518 -21q-55 -36 -27 -344zM289 86q-11 69 40 122.5t127 65.5q74 11 138.5 -13.5t79.5 -114.5q9 -69 -41.5 -122.5t-127.5 -65.5q-74 -11 -138.5 15t-77.5 113z" />
<glyph unicode="@" horiz-adv-x="1373" d="M35 613q-5 385 55 583t102 238q153 48 757 23q179 -32 307 -218q26 -325 -2 -551t-68 -261q-150 -71 -272 -80q-70 4 -86 69l1 -21q-12 -10 -170.5 0t-177.5 74q-91 158 -22 453q16 77 89 102q372 -18 442 -72q6 30 -1 56.5t-14 28.5q-308 50 -422.5 38.5t-116.5 -16.5 q-60 -356 -37 -526t32 -182q126 -28 279.5 -30t454.5 19q46 -45 66 -142.5t7 -138.5q-235 -98 -482 -103q-412 0 -547 74q-156 308 -174 583zM164 1034q30 -31 54 -4q6 64 115 199q22 107 443 102q37 4 27.5 21t-28.5 30q-371 44 -518 -21q-55 -36 -93 -327zM743 610 q47 -7 102 6q10 37 11 70q-16 10 -68 16.5t-45 12.5q-3 -91 0 -105z" />
<glyph unicode="A" horiz-adv-x="1068" d="M41 -7q49 441 94 645t115 796q36 45 208 46q24 0 52 -2q220 -8 242 -70q72 -449 122.5 -692.5t113.5 -718.5q-38 -37 -182 -49q-35 -3 -64 -3q-91 0 -124 30q-12 195 -19 290q-56 0 -164 -2q-5 -47 -12 -109q-22 -222 -63 -249q-306 20 -319 88zM285 878q27 -34 54 -10 q22 239 82 385q37 64 225 71q36 0 29 18.5t-25 32.5q-79 39 -165 39q-61 0 -125 -20q-58 -31 -75 -516zM385.5 409q1.5 -16 27.5 -27q17 -1 34 -1q55 0 115 12q27 34 -2 50q-38 14 -77 13.5t-78 -13.5q-21 -18 -19.5 -34zM455 532q55 -6 123 -6q-7 99 -24 205 q-25 154 -57 358q9 0 27 -4q-33 -280 -54 -492q-12 -35 -15 -61z" />
<glyph unicode="B" horiz-adv-x="923" d="M37 1335q8 126 123 133q176 5 271 5t109 -5q187 -66 248 -319q17 -80 16 -147q0 -170 -105 -267q40 -19 101 -126q71 -135 71 -271q0 -129 -64 -259q-49 -78 -240 -133q-146 -18 -250 -18q-214 0 -252 76q-27 85 -27 450q0 59 1 125q-1 284 -2 756zM121 852q30 -31 54 -4 q-1 25 -1 49q0 207 39 343q19 91 234 91q38 0 82 -3q37 4 27.5 21t-28.5 30q-115 27 -209 27q-105 0 -182 -34q-32 -21 -32 -196q0 -123 16 -324zM387 1218q0 -69 -1 -124q0 -111 2 -170q11 -19 29 -19q15 0 34 13q26 37 25.5 104.5t-25.5 164.5q-5 33 -42 33q-10 0 -22 -2z M412 283q37 1 48 12q45 71 45 149q0 54 -22 111q-12 43 -70 49q1 -28 0 -85q1 -85 -1 -236z" />
<glyph unicode="C" horiz-adv-x="918" d="M55 404q-13 156 -13 299q0 317 65 572q31 94 161 168q81 15 175 15q127 0 277 -27q89 -76 103 -372q-9 -38 -125 -105q-73 -42 -123 -42q-29 0 -50 15q-9 158 -35 252q-11 7 -37 -11q-76 -247 -76 -502q0 -22 1 -44q0 -261 90 -390q5 -4 18 19q37 122 42 278q10 26 94 26 q77 0 216 -22q-25 -479 -99 -549q-176 -44 -320 -44q-112 0 -205 27q-88 65 -159 437zM134 706q12 -39 24 -39q14 0 29 55q45 378 115 517q79 101 202 109q30 1 30 14q0 15 -36 44q-31 4 -60 4q-146 0 -224 -102q-91 -178 -91 -423q0 -85 11 -179zM368 155q-2 -6 -2 -11 q0 -32 78 -33h6q109 0 135 103q-16 47 -43 19q-42 -37 -92 -37h-5q-7 1 -13 1q-48 0 -64 -42z" />
<glyph unicode="D" horiz-adv-x="905" d="M41 1412q2 50 60 54q178 12 279 12t125 -12q172 -84 252 -401q30 -192 29 -388q0 -262 -52 -534q-45 -179 -410 -179q-102 0 -229 14q-46 17 -51 58q-14 207 -14 582q0 332 11 794zM113 852q30 -31 54 -4q-1 25 -1 49q0 207 39 343q20 97 178 97q16 0 34 -1q37 4 27.5 21 t-28.5 30q-61 22 -123 22q-81 0 -164 -37q-32 -21 -32 -196q0 -123 16 -324zM332 244q0 -27 39 -27q18 0 45 6q112 23 114 134q-27 41 -47 7q-34 -47 -86 -57q-65 -9 -65 -63zM366 1148q0 -137 5 -297q1 -67 1 -148q0 -141 -4 -321q81 25 112 217q2 37 2 74q0 220 -76 446 q-17 27 -40 29z" />
<glyph unicode="E" horiz-adv-x="906" d="M36 1425q18 45 165 69q50 7 307 16q70 2 122 2q139 0 148 -17q37 -34 38 -124q0 -27 -4 -57q-14 -136 -64 -141h-78q-151 0 -265 -6q0 -101 4 -197q122 -6 284 -6q54 -8 54 -82v-13q-5 -86 -25 -115q-129 -59 -304 -83q-2 -179 -3 -388q354 -7 385 -47q24 -35 25 -113 q0 -6 -1 -12q-2 -87 -28 -121q-30 -33 -238 -33q-3 1 -6 1q-214 0 -355.5 11t-159.5 45q-13 376 -13 736q0 345 12 675zM129 876q30 -31 54 -4q-1 25 -1 49q0 207 39 343q22 107 409 125q37 4 27.5 21t-28.5 30q-82 5 -153 5q-220 0 -331 -49q-32 -21 -32 -196 q0 -123 16 -324zM488 174q-1 -16 31 -30q62 -10 130 -10q29 0 60 2q22 16 22 30q0 11 -16 20q-63 24 -131 24q-32 0 -66 -5q-29 -15 -30 -31zM491.5 875q1.5 -16 27.5 -27q17 -1 34 -1q55 0 115 12q27 34 -2 50q-38 14 -77 13.5t-78 -13.5q-21 -18 -19.5 -34z" />
<glyph unicode="F" horiz-adv-x="863" d="M26 682q-5 264 -5 436q0 293 14 329q41 82 127 82h2q152 -1 259 -11.5t326 -10.5q25 -20 25 -117q0 -59 -9 -148q-30 -22 -368 -35q2 -137 8 -235q78 0 205 9q44 1 50 -101q2 -28 2 -52q0 -62 -12 -93q-146 -60 -256 -83q-1 -52 -1 -125q0 -201 8 -561q-33 -38 -171 -54 q-46 -6 -80 -5q-69 0 -91 22q-20 43 -33 753zM123 909q30 -31 54 -4q-1 25 -1 49q0 207 39 343q22 107 319 114q37 4 27.5 21t-28.5 30q-81 11 -152 11q-143 0 -242 -44q-32 -21 -32 -196q0 -123 16 -324zM373.5 847.5q3.5 -15.5 30.5 -23.5q70 4 146 29q23 37 -8 50 q-26 5 -51 5q-53 0 -103 -24q-18 -21 -14.5 -36.5z" />
<glyph unicode="G" horiz-adv-x="898" d="M52 926v18q0 355 77 452q100 95 269 95q141 0 329 -65q81 -58 85 -366q-175 -21 -256 -21q-34 0 -51 4q-4 82 -19 120q-5 5 -16 5q-17 0 -47 -10q-35 -11 -45 -384q-1 -23 -1 -47q0 -252 70 -494q32 -22 53 -9q14 12 15 70q0 264 -2 382q32 33 149 35h14q105 0 127 -30 q15 -200 15 -406t-19 -359q-15 -121 -46 -205q-80 2 -195 47q-96 37 -96 75q0 7 4 14q21 33 28 88q-43 -6 -83 -6q-80 0 -145 26q-123 59 -158 167q-61 275 -61 610q0 95 5 194zM150 717q12 -39 24 -39q14 0 29 55q12 378 82 517q79 101 202 109q30 1 30 14q0 15 -36 44 q-31 4 -60 4q-146 0 -224 -102q-76 -148 -76 -343q0 -121 29 -259zM382 117q-2 -6 -2 -11q0 -32 78 -33h6q110 0 135 103q-16 47 -43 19q-42 -37 -92 -37h-5q-7 1 -13 1q-48 0 -64 -42z" />
<glyph unicode="H" horiz-adv-x="966" d="M36 1452q16 46 160 70q52 9 95 9q74 0 117 -27q-4 -301 -4 -492q0 -128 2 -207q4 -82 5 -139q47 -5 99 -6q4 108 4 405q0 149 -1 345q11 58 150 57q5 1 11 1q150 -2 187 -42q17 -232 17 -455q0 -107 -4 -211q-8 -227 -8 -534q0 -128 1 -270q-33 -37 -175 -52 q-45 -5 -78 -5q-74 0 -97 23q-8 265 -8 405q-34 0 -95 -1v-63q0 -106 -4 -276q-30 -28 -126 -28q-32 -1 -72 3q-158 12 -174 49q11 179 11 348q0 133 -7 260q-8 146 -8 468q0 160 2 365zM115 927q12 -32 25 -32q16 0 36 44q-3 72 -3 134q0 247 45 325q36 17 83 32 q18 13 -2 26q-39 11 -74 11q-44 0 -83 -17q-39 -32 -39 -239q0 -115 12 -284zM117 806q0 -16 8 -27.5t20 -11.5q11 0 19.5 11.5t8.5 27.5t-8.5 27.5t-19.5 11.5q-12 0 -20 -11.5t-8 -27.5zM371.5 559q1.5 -16 27.5 -27q17 -1 34 -1q55 0 115 12q27 34 -2 50q-38 14 -77 13.5 t-78 -13.5q-21 -18 -19.5 -34zM586 1392q-13 -31 -13 -62q0 -44 26 -89q12 -21 19 -21q9 0 11 34q28 96 116 128q31 -19 34 18q-51 26 -96 26q-52 0 -97 -34z" />
<glyph unicode="I" horiz-adv-x="489" d="M43 540q3 142 10 488q-2 5 -2 9q0 40 135 39q69 0 173 -10l25 -10l16 -29q0 -230 -2 -315q4 -304 11 -708q-33 -36 -181 -42q-24 -1 -44 0q-109 0 -135 24q-8 209 -8 386q0 88 2 168zM50 1188q-5 106 -5 178q0 121 14 145q30 39 153 39h6q128 -1 165 -40q16 -85 15 -180 q0 -57 -5 -117q-22 -44 -314 -58zM116 1309q11 -25 26 -25q14 0 32 23q17 86 100 136q32 22 -4 36q-34 8 -62 8q-55 0 -84 -32q-16 -30 -16 -75q0 -32 8 -71zM119 740q18 -60 32 -60t26 58q17 167 100 217q32 22 -4 36q-34 8 -62 8q-55 0 -84 -32q-16 -30 -16 -103 q0 -51 8 -124z" />
<glyph unicode="J" horiz-adv-x="918" d="M35 514q0 32 65 37q77 9 130 9q91 0 109 -27q5 -160 43 -252q11 -22 24 -22q16 0 35 30q49 72 49 333q1 25 1 51q0 270 -67 685q4 76 176 93q46 5 80 5q92 0 96 -34q45 -365 45 -704q0 -126 -6 -248q-26 -368 -168 -505q-114 -34 -229 -34q-142 0 -285 52q-78 36 -98 531 zM106 479q-18 -23 -18 -50q0 -37 35 -80q15 -14 24 -14q16 0 18 38q12 64 63 73q42 9 42 26q0 10 -13 22q-32 11 -62 11q-46 0 -89 -26zM368 135q31 -8 58 -8q83 0 125 76v10q0 54 -40 54h-4q-30 -82 -97 -82q-8 0 -16 1h-8q-27 0 -27 -20q0 -12 9 -31zM509 1240 q18 -24 39 -3q23 79 128 120q34 11 0 33q-17 2 -33 2q-68 0 -119 -37q-27 -38 -27 -71q0 -23 12 -44z" />
<glyph unicode="K" horiz-adv-x="920" d="M29 736q-1 91 -1 177q0 290 13 509q23 36 167 50q37 4 66 4q87 0 116 -31q18 -243 18 -443q0 -67 -2 -128q22 8 56 35q29 144 29 341q0 82 -5 174q14 34 166 46q27 2 48 3q104 0 110 -45q4 -76 4 -161q0 -227 -26 -512q-64 -96 -144 -127q78 -77 159 -235 q34 -116 33 -328v-58q-18 -35 -180 -51q-42 -4 -74 -4q-93 0 -104 34q7 140 7 231q0 108 -10 148q-9 23 -81 94q-4 -155 -6 -462q-16 -41 -168 -41q-2 0 -4 -1q-147 0 -178 31q-4 348 -9 750zM111 870q11 -32 25 -32q16 0 35 44q-3 71 -3 132q0 249 46 327q35 17 83 32 q17 13 -3 26q-38 11 -73 11q-44 0 -84 -17q-38 -32 -38 -236q0 -116 12 -287zM112 749q0 -16 8 -27.5t20 -11.5q11 0 19.5 11.5t8.5 27.5t-8.5 27.5t-19.5 11.5q-12 0 -20 -11.5t-8 -27.5zM564 1207q12 -21 19 -21q9 0 11 34q42 117 130 149q31 -19 34 18q-51 26 -96 26 q-52 0 -97 -34q-16 -38 -16 -81t15 -91z" />
<glyph unicode="L" horiz-adv-x="809" d="M21 814q-2 125 -2 225q0 332 23 381q30 42 168 52q23 2 44 2q101 0 133 -39q9 -626 9 -944q0 -106 -1 -178q117 -9 222 -9q35 0 68 1q28 -12 35 -39q2 -45 2 -82q0 -98 -17 -136q-327 -89 -492 -89q-51 0 -86 8q-84 31 -87 91q-10 213 -19 756zM112 862q12 -32 25 -32 q16 0 36 44q-3 72 -3 134q0 247 45 325q36 17 83 32q18 13 -2 26q-39 11 -74 11q-44 0 -83 -17q-39 -32 -39 -239q0 -115 12 -284zM338.5 220q-1.5 -16 19.5 -34q39 -14 77.5 -13.5t77.5 13.5q29 16 2 50q-60 12 -115 12q-17 0 -34 -1q-26 -11 -27.5 -27z" />
<glyph unicode="M" horiz-adv-x="1206" d="M44 16q14 465 14 759v114q-4 312 -7 487q0 44 107.5 74.5t214.5 36.5q153 -244 222 -393q51 102 119 357q14 35 94 35q90 0 265 -45q40 -25 52 -741q6 -373 6 -558q0 -170 -5 -183q-6 -40 -124 -67q-46 -11 -82 -11q-56 0 -87 26l-54 643q-24 -80 -74 -219 q-23 -38 -89 -50q-18 -3 -34 -3q-43 0 -74 23q-105 338 -105 348q0 2 6 -15q-27 -407 -67 -691q-24 -20 -69 -20q-39 1 -93 15q-118 32 -136 78zM121 1215q6 -17 14 -17q12 0 30 34q17 64 117 151q40 14 5 31q-98 -3 -152 -59q-20 -27 -20 -78q0 -27 6 -62zM707 1146 q3 -29 19 -29q14 0 37 20q47 98 134 221q23 9 23 23q0 12 -17 27q-42 12 -70 12q-45 0 -53 -31q-56 -101 -73 -243z" />
<glyph unicode="N" horiz-adv-x="1063" d="M31 1373q27 43 154 77q76 21 120 20q29 0 45 -9q99 -160 264 -476q7 158 33 446q11 48 139 62q25 3 47 2q91 0 125 -47q22 -35 22 -550v-153q-4 -663 -10 -696q-30 -43 -172 -83q-62 -17 -102 -17q-54 0 -74 30q-78 247 -215 563v-33q0 -244 -41 -583q-39 -22 -142 -22 q-17 0 -35 1q-132 4 -145 57q1 60 1 130q1 214 -11 512q-8 214 -9 422q0 175 6 347zM96 1198q6 -17 14 -17q12 0 30 34q17 64 117 151q40 14 5 31q-98 -3 -152 -59q-20 -27 -20 -78q0 -27 6 -62zM705 1130q8 -25 22 -25q15 0 35 29q23 106 79 246q17 12 17 24q0 13 -23 26 h-19q-94 0 -96 -47q-20 -73 -20 -160q0 -45 5 -93z" />
<glyph unicode="O" horiz-adv-x="910" d="M42 915q41 368 97 478q18 47 77 67q138 36 246 36q97 0 169 -29q56 -19 87 -61q70 -112 115 -453q14 -158 14 -304q0 -280 -51 -511q-38 -112 -161 -168q-156 -33 -265 -33q-126 0 -187 45q-92 78 -131 410l2 1q-16 180 -16 352q0 86 4 170zM121 738q12 -39 24 -39 q14 0 29 55q45 378 115 517q79 101 202 109q30 1 30 14q0 15 -36 44q-31 4 -60 4q-146 0 -224 -102q-91 -178 -91 -423q0 -85 11 -179zM362 891q-11 -90 -11 -176q0 -142 30 -271q12 -52 33 -100q12 -22 24 -22q19 0 39 55q49 121 49 353q0 30 -1 61q0 261 -73 366 q-22 28 -35 5q-38 -124 -55 -271zM376 187q0 -27 39 -27q18 0 45 6q112 23 114 134q-27 41 -47 7q-34 -47 -86 -57q-65 -9 -65 -63z" />
<glyph unicode="P" horiz-adv-x="905" d="M36 1405q11 64 70 91q43 13 144 13q122 0 329 -19q137 -13 191 -115q49 -91 49 -356q-1 -32 -1 -66q-6 -320 -92 -511q-63 -61 -336 -65v-74q0 -156 3 -379q-12 -45 -176 -74q-46 -8 -80 -8q-86 0 -91 53q-2 583 -10 1023q-4 227 -3 350q0 114 3 137zM119 759 q0 -20 10 -34.5t24 -14.5t24.5 14.5t10.5 34.5q0 21 -10.5 35.5t-24.5 14.5t-24 -14.5t-10 -35.5zM121 868q30 -31 54 -4q-1 25 -1 49q0 207 39 343q19 91 234 91q38 0 82 -3q37 4 27.5 21t-28.5 30q-115 27 -209 27q-105 0 -182 -34q-32 -21 -32 -196q0 -123 16 -324z M393 682q29 -21 49 -21t29 22q33 91 33 330q0 48 -1 102q-8 63 -67 63q-18 0 -41 -6q3 -117 3 -225.5t-3 -209.5q-2 -41 -2 -55z" />
<glyph unicode="Q" horiz-adv-x="957" d="M52 945q39 267 159 497q80 60 215 60q121 0 286 -48q120 -51 149 -525q4 -91 4 -182q0 -159 -13 -316h2q-24 -207 -49 -286q27 -45 71 -129q-29 -66 -118 -114q-56 -31 -99 -31q-24 0 -43 10q-34 61 -50 90q-72 -10 -143 -10q-78 0 -154 12q-131 73 -162 166 q-60 273 -60 609q0 96 5 197zM163 732q12 -39 24 -39q14 0 29 55q45 378 115 517q79 101 202 109q30 1 30 14q0 15 -36 44q-31 4 -60 4q-146 0 -224 -102q-91 -178 -91 -423q0 -85 11 -179zM370 796q-1 -44 -1 -85q0 -212 31 -315q18 -53 43 -53q31 0 74 84q28 145 28 291 q0 91 -11 183q-18 147 -56 270q-12 21 -18 18q-90 -132 -90 -393zM390 206q0 -27 39 -27q18 0 45 6q112 23 114 134q-27 41 -47 7q-34 -47 -86 -57q-65 -9 -65 -63zM571 427q0 -19 7.5 -33t18.5 -15q12 0 20.5 13t9.5 32q1 20 -6.5 34t-18.5 14q-12 1 -21 -12.5t-10 -32.5z " />
<glyph unicode="R" horiz-adv-x="941" d="M30 -3q-8 287 -8 610q0 342 9 724q-1 9 -1 18q0 33 18 62q62 59 431 59h36q13 1 26 1q164 0 212 -96q72 -171 72 -338q0 -87 -20 -173q-54 -262 -133 -302q45 -207 172 -513q-10 -61 -81 -99q-56 -30 -102 -29q-12 0 -23 2q-126 141 -278 484q-1 -30 -1 -129.5t1 -268.5 q-10 -52 -158 -63q-22 -2 -41 -2q-110 0 -131 53zM108 750q0 -20 10 -34.5t24 -14.5t24.5 14.5t10.5 34.5q0 21 -10.5 35.5t-24.5 14.5t-24 -14.5t-10 -35.5zM113 852q30 -31 54 -4q-1 25 -1 49q0 207 39 343q19 91 234 91q38 0 82 -3q37 4 27.5 21t-28.5 30 q-115 27 -209 27q-105 0 -182 -34q-32 -21 -32 -196q0 -123 16 -324zM371 763q29 -6 49 -6q34 0 42 17q17 103 17 184q0 148 -56 227q-15 13 -48 14q1 -75 0 -145q1 -162 -4 -291z" />
<glyph unicode="S" horiz-adv-x="921" d="M34 141v19q0 89 40 120q311 -21 368 -21h10q23 84 23 157q0 63 -17 117q-325 36 -369 143q-48 262 -48 527q3 89 46 156q104 87 425 118q28 2 54 2q151 0 231 -64q25 -38 27 -153q0 -9 1 -17q0 -100 -29 -114q-142 19 -238 19t-145 -19q-14 -55 -14 -104q0 -54 17 -102 q11 -38 221 -64q136 -48 181 -186q11 -89 11 -209q0 -145 -16 -335q-27 -133 -195 -181h-10q-341 0 -545 70q-25 16 -29 121zM127 1053q18 -32 35 -32q18 0 33 37q0 139 71 202q57 43 240 92q36 15 36 28t-36 24q-226 -24 -349 -98q-42 -37 -42 -133q0 -51 12 -120zM408 114 h18q137 0 175 117q-9 65 -49 65q-7 0 -16 -2q-17 -112 -109 -117q-36 -4 -36 -25q0 -15 17 -38z" />
<glyph unicode="T" horiz-adv-x="984" d="M13 1389q5 51 65 58q154 20 363 20q180 0 400 -15q57 -3 87 -50q23 -38 23 -79q0 -37 -17 -189q-13 -24 -273 -56q1 -64 1 -131q0 -425 -28 -935q-33 -40 -244 -52q-49 13 -72 238.5t-38 873.5q-227 12 -252 39q-17 119 -17 212q0 35 2 66zM88 1297q3 -93 24 -125 q24 -19 43 16q16 79 85 117q111 26 415 45q72 8 72 23q0 16 -48 30q-98 2 -184 2q-226 0 -372 -15q-35 -29 -35 -93z" />
<glyph unicode="U" horiz-adv-x="1002" d="M40 171q-7 268 -7 481q0 631 58 777q25 59 127 59q26 0 58 -4q150 -19 149 -84l-24 -810q0 -140 6 -217q25 -33 78 -33q9 0 21 2q70 8 72 36q2 85 2 181q0 347 -23 833v12q0 63 61 83q86 16 145 16q102 0 123 -49q31 -48 32 -710v-15q0 -648 -87 -697 q-166 -111 -359 -111q-131 0 -275 52q-135 65 -157 198zM120 763q0 -16 8 -27.5t20 -11.5q11 0 19.5 11.5t8.5 27.5t-8.5 27.5t-19.5 11.5q-12 0 -20 -11.5t-8 -27.5zM120 887q10 -32 23 -32q16 0 38 44q5 362 67 459q36 17 84 22q18 13 -1 26q-45 18 -87 18q-37 0 -70 -14 q-55 -44 -55 -411q0 -53 1 -112zM447 237q-2 -5 -2 -10q0 -29 60 -29q10 0 21 1q114 5 132 113q-20 46 -44 15q-41 -42 -94 -43h-2q-57 0 -71 -47zM630 1411q-13 -31 -12 -62q0 -44 25 -89q12 -21 19 -21q9 0 11 34q28 96 116 128q31 -19 34 18q-51 26 -96 26q-52 0 -97 -34 z" />
<glyph unicode="V" horiz-adv-x="1040" d="M32 1355q8 99 164 113q39 4 68 4q91 0 105 -33q62 -538 96 -752q19 -122 22 -134q19 100 39 292q25 239 50 431q13 107 32 163q21 57 71 57q6 0 13 -1q211 -30 243 -65q8 -10 8 -48q0 -101 -55 -399q-75 -410 -144 -1011q-20 -26 -187 -26h-65q-228 6 -251 48 q-73 463 -114.5 705.5t-94.5 655.5zM101 1220q6 -17 14 -17q12 0 30 34q17 64 117 151q40 14 5 31q-98 -3 -152 -59q-20 -27 -20 -78q0 -27 6 -62zM615 1043q-4 -24 2 -42t19 -20q12 -2 24 13t16 39q3 23 -3 41t-18 20q-13 2 -24.5 -13t-15.5 -38zM636 1180q5 -27 20 -27 q13 0 32 19q34 90 102 202q37 16 1 46q-40 11 -65 11q-41 0 -46 -28q-42 -93 -44 -223z" />
<glyph unicode="W" horiz-adv-x="1350" d="M47 1401q5 43 141 89q74 25 122 25q40 0 61 -17l106 -675q38 128 88 267q23 38 89 50q18 3 34 4q43 0 74 -24q108 -346 108 -357q0 -2 -5 11q40 408 73 696q29 24 94 25q37 -1 85 -9q134 -22 153 -69q-42 -583 -48 -891q-4 -199 -4 -342q0 -78 1 -139q0 -44 -107.5 -74.5 t-214.5 -36.5q-153 244 -222 393q-51 -102 -119 -357q-13 -21 -86 -21q-94 0 -287 34q-29 503 -53.5 694t-82.5 724zM123 1248q6 -17 14 -17q12 0 30 34q17 64 117 151q40 14 5 31q-98 -3 -152 -59q-20 -27 -20 -78q0 -27 6 -62zM576 942q9 -33 42 2q23 63 90 105 q26 17 2 26q-16 3 -30 3q-48 0 -78 -29q-26 -38 -26 -107zM997 1191q8 -27 23 -27q13 0 30 19q26 90 84 202q36 16 -3 46q-40 11 -66 11q-41 0 -43 -28q-27 -74 -27 -170q0 -26 2 -53z" />
<glyph unicode="X" horiz-adv-x="1010" d="M33 1375q19 45 125 79q70 23 117 23q25 0 43 -6q86 -259 179 -419q55 138 109 411q20 10 56 9q50 0 131 -17q141 -31 161 -84q-110 -404 -246 -668q132 -239 238 -615q-5 -61 -109 -110q-57 -27 -98 -27q-33 0 -56 18q-98 237 -178 361q-83 -157 -191 -400q-21 -5 -43 -5 q-51 1 -109 27q-84 38 -84 92q98 376 216 593q-149 241 -261 738zM127 1354q-11 -18 -11 -43q0 -34 20 -83q5 -17 11 -17q10 0 24 34v7q0 49 75 130q32 14 4 31q-80 -3 -123 -59zM635 1157q6 -28 19 -28q11 0 26 17q27 88 83 196q31 13 0 46q-39 15 -62 15q-30 0 -33 -25 q-33 -90 -33 -221z" />
<glyph unicode="Y" horiz-adv-x="938" d="M37 1401q43 33 139 39q16 1 31 1q72 0 108 -24q104 -279 156 -349q21 112 43 355q34 36 168 51q33 4 61 4q79 0 101 -33q17 -126 17 -250q0 -680 -510 -1302q-26 -8 -62 -8q-49 0 -115 14q-91 19 -91 83q0 18 8 40q152 291 244 528q-259 454 -298 851zM114 1366 q-18 -23 -18 -50q0 -37 35 -80q15 -14 24 -14q16 0 18 38q12 64 74 83q31 -19 34 18q-43 36 -86 36q-41 0 -81 -31zM560 1164v-9q0 -28 18 -28q13 0 35 14q27 38 33 97.5t116 112.5q31 12 9 31q-46 41 -93 41q-38 0 -77 -27q-41 -50 -41 -232z" />
<glyph unicode="Z" horiz-adv-x="1025" d="M47 300q24 126 507 784q-348 0 -446 16q-44 24 -58 154q-4 38 -4 69q0 78 23 122q239 20 491 20q160 0 325 -8q33 -40 40 -208q2 -41 2 -74q0 -105 -17 -139q-284 -468 -442 -686q101 -9 215 -10.5t220 -1.5q35 -30 35 -132q0 -25 -2 -55q-11 -150 -48 -191 q-211 -3 -367 -3q-404 0 -431 19q-22 34 -43 324zM115 1310q3 -83 24 -111q24 -17 43 14q16 70 85 104q111 23 415 39q72 8 72 21q0 14 -48 26q-99 2 -186 2q-224 0 -370 -13q-35 -26 -35 -82zM581.5 221q0.5 -16 34.5 -26q17 -1 34 -1q74 0 155 14q19 18 19 31t-18 20 q-46 12 -92 12q-52 0 -106 -15q-27 -19 -26.5 -35z" />
<glyph unicode="[" horiz-adv-x="759" d="M48 1073.5q18 558.5 56 594.5q237 44 449 42q73 -23 77.5 -160.5t-43.5 -169.5q-85 -22 -147 -36q-65 -625 16 -1283q68 -10 185 -26q40 -49 28 -190.5t-93 -165.5q-441 18 -491 77q-55 759 -37 1317.5zM130 954q27 -68 61 14q11 489 64 587q35 18 112 63q17 13 -3 26 q-118 -7 -187 -39q-59 -52 -47 -651z" />
<glyph unicode="\" horiz-adv-x="869" d="M30 1432q65 43 206.5 38t168.5 -42q181 -637 224 -841q58 -268 160 -571q-14 -42 -168.5 -54t-196.5 17q-122 406 -183 687q-66 259 -211 766zM119 1309q22 -48 58 -2q17 38 100 88q32 22 -4 36q-103 24 -146 -24q-27 -51 -8 -98z" />
<glyph unicode="]" horiz-adv-x="761" d="M43 -155q-13 142 29 190q116 16 183 26q81 658 16 1283q-62 14 -147 36q-47 32 -42.5 169.5t76.5 160.5q213 2 450 -42q39 -36 56 -594.5t-37 -1317.5q-51 -59 -492 -77q-79 24 -92 166zM120 -123q22 -48 58 -2q17 38 100 88q32 22 -4 36q-103 24 -146 -24 q-27 -51 -8 -98zM149 1542q22 -48 58 -2q17 38 100 88q32 22 -4 36q-103 24 -146 -24q-27 -51 -8 -98z" />
<glyph unicode="^" horiz-adv-x="731" d="M30 1617q86 115 233 246q93 23 175 6q94 -90 213 -267q-35 -64 -111 -113q-137 71 -184 104q-53 -38 -183 -91q-70 8 -143 115zM197 1706q22 -48 58 -2q70 46 153 96q32 22 -4 36q-103 24 -146 -24q-52 -56 -61 -106z" />
<glyph unicode="_" horiz-adv-x="1120" d="M43.5 69q13.5 131 56.5 159q139 26 489 24t396 -17q55 -17 55 -174t-61 -166q-206 4 -460.5 -3t-435.5 11q-53 35 -39.5 166zM120 103q3 -80 21 -107q20 -16 37 14q13 67 73 100q95 22 581 31q64 7 61.5 20.5t-40.5 24.5q-440 35 -703 -3q-30 -25 -30 -80z" />
<glyph unicode="`" horiz-adv-x="559" d="M30 1709q24 51 90.5 101.5t123.5 69.5q168 -152 235 -299q-14 -47 -50.5 -82.5t-81.5 -44.5q-191 98 -317 255zM116 1741q-15 -50 42 -39q38 18 133 2q39 -4 21 30q-63 85 -127 77q-53 -22 -69 -70z" />
<glyph unicode="a" horiz-adv-x="922" />
<glyph unicode="b" horiz-adv-x="995" />
<glyph unicode="c" horiz-adv-x="905" />
<glyph unicode="d" horiz-adv-x="1040" />
<glyph unicode="e" horiz-adv-x="909" />
<glyph unicode="f" horiz-adv-x="559" />
<glyph unicode="g" horiz-adv-x="899" />
<glyph unicode="h" horiz-adv-x="1104" />
<glyph unicode="i" horiz-adv-x="514" />
<glyph unicode="j" horiz-adv-x="510" />
<glyph unicode="k" horiz-adv-x="1026" />
<glyph unicode="l" horiz-adv-x="522" />
<glyph unicode="m" horiz-adv-x="1569" />
<glyph unicode="n" horiz-adv-x="1108" />
<glyph unicode="o" horiz-adv-x="1010" />
<glyph unicode="p" horiz-adv-x="1010" />
<glyph unicode="q" horiz-adv-x="1024" />
<glyph unicode="r" horiz-adv-x="692" />
<glyph unicode="s" horiz-adv-x="702" />
<glyph unicode="t" horiz-adv-x="674" />
<glyph unicode="u" horiz-adv-x="1059" />
<glyph unicode="v" horiz-adv-x="993" />
<glyph unicode="w" horiz-adv-x="1415" />
<glyph unicode="x" horiz-adv-x="1010" />
<glyph unicode="y" horiz-adv-x="868" />
<glyph unicode="z" horiz-adv-x="727" />
<glyph unicode="{" />
<glyph unicode="|" />
<glyph unicode="}" />
<glyph unicode="~" horiz-adv-x="848" d="M30 1617q21 168 146 242q173 46 280 -87q27 -41 66 -17q20 30 21 75q11 47 93 44t115 -40q20 -248 -163 -336q-152 -55 -299 99q-10 10 -15 5q-14 -29 -37 -94q-38 -27 -120.5 12.5t-86.5 96.5zM106 1685q22 -48 58 -2q70 46 153 96q32 22 -4 36q-103 24 -146 -24 q-52 -56 -61 -106z" />
<glyph unicode="&#xa2;" horiz-adv-x="1139" />
<glyph unicode="&#xa3;" horiz-adv-x="1399" />
<glyph unicode="&#xa4;" />
<glyph unicode="&#xa5;" horiz-adv-x="1262" />
<glyph unicode="&#xa6;" />
<glyph unicode="&#xa7;" />
<glyph unicode="&#xa8;" horiz-adv-x="727" d="M41 1722q12 73 62 121t116 39q83 -14 107.5 -74.5t14.5 -131.5q-13 -73 -63.5 -121t-115.5 -39q-86 14 -109 75t-12 131zM101 1690q22 -48 58 -2q17 38 100 88q32 22 -4 36q-103 24 -146 -24q-27 -51 -8 -98zM337 1722q11 73 62 121t117 39q83 -14 107.5 -75t13.5 -131 q-11 -73 -62 -121t-116 -39q-86 14 -109 75t-13 131zM398 1690q22 -48 58 -2q17 38 100 88q32 22 -4 36q-103 24 -146 -24q-27 -51 -8 -98z" />
<glyph unicode="&#xa9;" horiz-adv-x="1674" />
<glyph unicode="&#xaa;" horiz-adv-x="648" />
<glyph unicode="&#xab;" horiz-adv-x="944" />
<glyph unicode="&#xac;" />
<glyph unicode="&#xad;" horiz-adv-x="807" d="M38.5 709.5q8.5 126.5 41.5 159.5q47 18 306 19.5t297 -12.5q44 -21 44 -174.5t-51 -165.5q-139 4 -309 -3t-299 12q-38 38 -29.5 164.5zM103 744q3 -80 21 -107q20 -16 37 14q13 67 73 100q95 22 292 31q64 7 61.5 20.5t-40.5 24.5q-240 15 -414 -3q-30 -25 -30 -80z " />
<glyph unicode="&#xae;" horiz-adv-x="1674" />
<glyph unicode="&#xaf;" horiz-adv-x="670" />
<glyph unicode="&#xb0;" horiz-adv-x="581" d="M48 1375q8 51 82 82q138 24 297 -7q55 -36 53 -90q3 -197 -17 -313q-22 -51 -68 -65q-132 -38 -261 -21q-60 12 -82 79q-21 175 -4 335zM113 1160q20 -20 35 -2q1 48 28 145q14 69 165 61q24 3 18 14t-19 19q-118 32 -212 -9q-36 -23 -15 -228zM247 1284q-9 -78 18 -136 q1 -1 0 -2q5 76 -9 134q-8 5 -9 4z" />
<glyph unicode="&#xb1;" />
<glyph unicode="&#xb2;" />
<glyph unicode="&#xb3;" />
<glyph unicode="&#xb4;" horiz-adv-x="535" d="M30 1576q98 190 254 315q51 -22 102.5 -88.5t68.5 -125.5q-151 -166 -298 -234q-48 13 -83 50.5t-44 82.5zM133 1633q22 -48 58 -2q70 46 153 96q18 16 -4 36q-45 49 -88 10q-110 -90 -119 -140z" />
<glyph unicode="&#xb5;" horiz-adv-x="1180" />
<glyph unicode="&#xb6;" horiz-adv-x="1024" />
<glyph unicode="&#xb7;" horiz-adv-x="508" />
<glyph unicode="&#xb8;" horiz-adv-x="554" d="M64 -157l34 184l222 7q-56 -140 -54 -126q85 5 140 -27q26 -98 8 -204q-92 -67 -322 -80q-21 41 -17.5 91t32.5 57q126 57 106 22q-37 7 -116 19q-30 26 -33 57z" />
<glyph unicode="&#xb9;" />
<glyph unicode="&#xba;" horiz-adv-x="718" />
<glyph unicode="&#xbb;" horiz-adv-x="944" />
<glyph unicode="&#xbc;" horiz-adv-x="1708" />
<glyph unicode="&#xbd;" horiz-adv-x="1964" />
<glyph unicode="&#xbe;" horiz-adv-x="1708" />
<glyph unicode="&#xc0;" horiz-adv-x="1068" d="M41 -7q49 441 94 645t115 796q41 52 260.5 44.5t241.5 -70.5q72 -449 122.5 -692.5t113.5 -718.5q-38 -36 -182 -48.5t-188 26.5q-12 195 -19 290q-56 0 -164 -2q-5 -47 -12 -109q-22 -222 -63 -249q-306 20 -319 88zM227 1725q24 51 90.5 101.5t123.5 69.5 q168 -152 235 -299q-14 -47 -50.5 -82.5t-81.5 -44.5q-191 98 -317 255zM285 878q27 -34 54 -10q22 239 82 385q37 64 225 71q36 0 29 18.5t-25 32.5q-136 66 -290 19q-58 -31 -75 -516zM313 1757q-15 -50 42 -39q38 18 133 2q39 -4 21 30q-63 85 -127 77q-53 -22 -69 -70z M385.5 409q1.5 -16 27.5 -27q70 -5 149 11q27 34 -2 50q-77 27 -155 0q-21 -18 -19.5 -34zM455 533q55 -6 123 -7q-7 99 -24 205q-25 154 -57 358q9 0 27 -4q-33 -280 -54 -492q-12 -34 -15 -60z" />
<glyph unicode="&#xc1;" horiz-adv-x="1068" d="M41 -7q49 441 94 645t115 796q41 52 260.5 44.5t241.5 -70.5q72 -449 122.5 -692.5t113.5 -718.5q-38 -36 -182 -48.5t-188 26.5q-12 195 -19 290q-56 0 -164 -2q-5 -47 -12 -109q-22 -222 -63 -249q-306 20 -319 88zM280 1584q98 190 254 315q51 -22 102.5 -88.5 t68.5 -125.5q-151 -166 -298 -234q-48 13 -83 50.5t-44 82.5zM285 878q27 -34 54 -10q22 239 82 385q37 64 225 71q36 0 29 18.5t-25 32.5q-136 66 -290 19q-58 -31 -75 -516zM383 1641q22 -48 58 -2q70 46 153 96q18 16 -4 36q-45 49 -88 10q-110 -90 -119 -140zM385.5 409 q1.5 -16 27.5 -27q70 -5 149 11q27 34 -2 50q-77 27 -155 0q-21 -18 -19.5 -34zM455 533q55 -6 123 -7q-7 99 -24 205q-25 154 -57 358q9 0 27 -4q-33 -280 -54 -492q-12 -34 -15 -60z" />
<glyph unicode="&#xc2;" horiz-adv-x="1068" d="M41 -7q49 441 94 645t115 796q41 52 260.5 44.5t241.5 -70.5q72 -449 122.5 -692.5t113.5 -718.5q-38 -36 -182 -48.5t-188 26.5q-12 195 -19 290q-56 0 -164 -2q-5 -47 -12 -109q-22 -222 -63 -249q-306 20 -319 88zM176 1630q86 115 233 246q93 23 175 6 q94 -90 213 -267q-35 -64 -111 -113q-137 71 -184 104q-53 -38 -183 -91q-70 8 -143 115zM285 878q27 -34 54 -10q22 239 82 385q37 64 225 71q36 0 29 18.5t-25 32.5q-136 66 -290 19q-58 -31 -75 -516zM343 1719q22 -48 58 -2q70 46 153 96q32 22 -4 36q-103 24 -146 -24 q-52 -56 -61 -106zM385.5 409q1.5 -16 27.5 -27q70 -5 149 11q27 34 -2 50q-77 27 -155 0q-21 -18 -19.5 -34zM455 533q55 -6 123 -7q-7 99 -24 205q-25 154 -57 358q9 0 27 -4q-33 -280 -54 -492q-12 -34 -15 -60z" />
<glyph unicode="&#xc3;" horiz-adv-x="1068" d="M41 -7q49 441 94 645t115 796q41 52 260.5 44.5t241.5 -70.5q72 -449 122.5 -692.5t113.5 -718.5q-38 -36 -182 -48.5t-188 26.5q-12 195 -19 290q-56 0 -164 -2q-5 -47 -12 -109q-22 -222 -63 -249q-306 20 -319 88zM145 1628q21 168 146 242q173 46 280 -87 q27 -41 66 -17q20 30 21 75q11 47 93 44t115 -40q20 -248 -163 -336q-152 -55 -299 99q-10 10 -15 5q-14 -29 -37 -94q-38 -27 -120.5 12.5t-86.5 96.5zM221 1696q22 -48 58 -2q70 46 153 96q32 22 -4 36q-103 24 -146 -24q-52 -56 -61 -106zM285 878q27 -34 54 -10 q22 239 82 385q37 64 225 71q36 0 29 18.5t-25 32.5q-136 66 -290 19q-58 -31 -75 -516zM385.5 409q1.5 -16 27.5 -27q70 -5 149 11q27 34 -2 50q-77 27 -155 0q-21 -18 -19.5 -34zM455 533q55 -6 123 -7q-7 99 -24 205q-25 154 -57 358q9 0 27 -4q-33 -280 -54 -492 q-12 -34 -15 -60z" />
<glyph unicode="&#xc4;" horiz-adv-x="1068" d="M41 -7q49 441 94 645t115 796q41 52 260.5 44.5t241.5 -70.5q72 -449 122.5 -692.5t113.5 -718.5q-38 -36 -182 -48.5t-188 26.5q-12 195 -19 290q-56 0 -164 -2q-5 -47 -12 -109q-22 -222 -63 -249q-306 20 -319 88zM214 1722q12 73 62 121t116 39q83 -14 107.5 -74.5 t14.5 -131.5q-13 -73 -63.5 -121t-115.5 -39q-86 14 -109 75t-12 131zM274 1690q22 -48 58 -2q17 38 100 88q32 22 -4 36q-103 24 -146 -24q-27 -51 -8 -98zM285 878q27 -34 54 -10q22 239 82 385q37 64 225 71q36 0 29 18.5t-25 32.5q-136 66 -290 19q-58 -31 -75 -516z M385.5 409q1.5 -16 27.5 -27q70 -5 149 11q27 34 -2 50q-77 27 -155 0q-21 -18 -19.5 -34zM455 533q55 -6 123 -7q-7 99 -24 205q-25 154 -57 358q9 0 27 -4q-33 -280 -54 -492q-12 -34 -15 -60zM510 1722q11 73 62 121t117 39q83 -14 107.5 -75t13.5 -131q-11 -73 -62 -121 t-116 -39q-86 14 -109 75t-13 131zM571 1690q22 -48 58 -2q17 38 100 88q32 22 -4 36q-103 24 -146 -24q-27 -51 -8 -98z" />
<glyph unicode="&#xc5;" horiz-adv-x="1068" d="M41 -7q49 441 94 645t115 796q41 52 260.5 44.5t241.5 -70.5q72 -449 122.5 -692.5t113.5 -718.5q-38 -36 -182 -48.5t-188 26.5q-12 195 -19 290q-56 0 -164 -2q-5 -47 -12 -109q-22 -222 -63 -249q-306 20 -319 88zM285 878q27 -34 54 -10q22 239 82 385q37 64 225 71 q36 0 29 18.5t-25 32.5q-136 66 -290 19q-58 -31 -75 -516zM289 1827q8 42 82 68q138 20 297 -6q55 -30 53 -75q3 -162 -17 -258q-22 -42 -68 -53q-132 -32 -261 -18q-60 10 -82 66q-21 144 -4 276zM354 1650q20 -17 35 -2q1 39 28 120q14 56 165 50q24 2 18 11t-19 16 q-118 27 -212 -7q-36 -19 -15 -188zM385.5 409q1.5 -16 27.5 -27q70 -5 149 11q27 34 -2 50q-77 27 -155 0q-21 -18 -19.5 -34zM455 533q55 -6 123 -7q-7 99 -24 205q-25 154 -57 358q9 0 27 -4q-33 -280 -54 -492q-12 -34 -15 -60zM488 1752q-9 -64 18 -113q1 0 0 -1 q5 63 -9 111q-8 3 -9 3z" />
<glyph unicode="&#xc7;" horiz-adv-x="918" d="M55 404q-43 500 52 871q31 94 161 168q190 35 452 -12q89 -76 103 -372q-9 -38 -125.5 -105t-172.5 -27q-9 158 -35 252q-11 7 -37 -11q-82 -268 -75 -546q0 -261 90 -390q5 -4 18 19q37 122 42 278q20 49 310 4q-25 -479 -99 -549q-314 -78 -525 -17q-88 65 -159 437z M134 706q26 -85 53 16q45 378 115 517q79 101 202 109q63 2 -6 58q-191 24 -284 -98q-123 -240 -80 -602zM282 -157l34 184l222 7q-56 -140 -53 -126q84 5 139 -27q27 -98 9 -204q-93 -67 -323 -80q-21 41 -17.5 91t32.5 57q126 57 106 22q-36 7 -116 19q-29 26 -33 57z M368 155q-15 -43 76 -44q115 -3 141 103q-16 47 -43 19q-44 -39 -97 -37q-59 6 -77 -41z" />
<glyph unicode="&#xc8;" horiz-adv-x="906" d="M36 1425q18 45 165 69q50 7 307 16t270 -15q48 -44 34 -180.5t-64 -141.5q-201 2 -343 -6q0 -101 4 -197q122 -6 284 -6q59 -9 54 -95t-25 -115q-129 -59 -304 -83q-2 -179 -3 -388q354 -7 385 -47q26 -38 24 -125t-28 -121q-30 -33 -244 -32.5t-355.5 11.5t-159.5 45 q-26 738 -1 1411zM129 876q30 -31 54 -4q-5 240 38 392q22 107 409 125q37 4 27.5 21t-28.5 30q-337 21 -484 -44q-55 -36 -16 -520zM171 1728q24 51 90.5 101.5t123.5 69.5q168 -152 235 -299q-14 -47 -50.5 -82.5t-81.5 -44.5q-191 98 -317 255zM257 1760q-15 -50 42 -39 q38 18 133 2q39 -4 21 30q-63 85 -127 77q-53 -22 -69 -70zM488 174q-1 -16 31 -30q88 -14 190 -8q40 30 6 50q-93 36 -197 19q-29 -15 -30 -31zM491.5 875q1.5 -16 27.5 -27q70 -5 149 11q27 34 -2 50q-77 27 -155 0q-21 -18 -19.5 -34z" />
<glyph unicode="&#xc9;" horiz-adv-x="906" d="M36 1425q18 45 165 69q50 7 307 16t270 -15q48 -44 34 -180.5t-64 -141.5q-201 2 -343 -6q0 -101 4 -197q122 -6 284 -6q59 -9 54 -95t-25 -115q-129 -59 -304 -83q-2 -179 -3 -388q354 -7 385 -47q26 -38 24 -125t-28 -121q-30 -33 -244 -32.5t-355.5 11.5t-159.5 45 q-26 738 -1 1411zM129 876q30 -31 54 -4q-5 240 38 392q22 107 409 125q37 4 27.5 21t-28.5 30q-337 21 -484 -44q-55 -36 -16 -520zM217 1584q98 190 254 315q51 -22 102.5 -88.5t68.5 -125.5q-151 -166 -298 -234q-48 13 -83 50.5t-44 82.5zM320 1641q22 -48 58 -2 q70 46 153 96q18 16 -4 36q-45 49 -88 10q-110 -90 -119 -140zM488 174q-1 -16 31 -30q88 -14 190 -8q40 30 6 50q-93 36 -197 19q-29 -15 -30 -31zM491.5 875q1.5 -16 27.5 -27q70 -5 149 11q27 34 -2 50q-77 27 -155 0q-21 -18 -19.5 -34z" />
<glyph unicode="&#xca;" horiz-adv-x="906" d="M36 1425q18 45 165 69q50 7 307 16t270 -15q48 -44 34 -180.5t-64 -141.5q-201 2 -343 -6q0 -101 4 -197q122 -6 284 -6q59 -9 54 -95t-25 -115q-129 -59 -304 -83q-2 -179 -3 -388q354 -7 385 -47q26 -38 24 -125t-28 -121q-30 -33 -244 -32.5t-355.5 11.5t-159.5 45 q-26 738 -1 1411zM81 1641q86 115 233 246q93 23 175 6q94 -90 213 -267q-35 -64 -111 -113q-137 71 -184 104q-53 -38 -183 -91q-70 8 -143 115zM129 876q30 -31 54 -4q-5 240 38 392q22 107 409 125q37 4 27.5 21t-28.5 30q-337 21 -484 -44q-55 -36 -16 -520zM248 1730 q22 -48 58 -2q70 46 153 96q32 22 -4 36q-103 24 -146 -24q-52 -56 -61 -106zM488 174q-1 -16 31 -30q88 -14 190 -8q40 30 6 50q-93 36 -197 19q-29 -15 -30 -31zM491.5 875q1.5 -16 27.5 -27q70 -5 149 11q27 34 -2 50q-77 27 -155 0q-21 -18 -19.5 -34z" />
<glyph unicode="&#xcb;" horiz-adv-x="906" d="M36 1425q18 45 165 69q50 7 307 16t270 -15q48 -44 34 -180.5t-64 -141.5q-201 2 -343 -6q0 -101 4 -197q122 -6 284 -6q59 -9 54 -95t-25 -115q-129 -59 -304 -83q-2 -179 -3 -388q354 -7 385 -47q26 -38 24 -125t-28 -121q-30 -33 -244 -32.5t-355.5 11.5t-159.5 45 q-26 738 -1 1411zM129 876q30 -31 54 -4q-5 240 38 392q22 107 409 125q37 4 27.5 21t-28.5 30q-337 21 -484 -44q-55 -36 -16 -520zM129 1730q12 73 62 121t116 39q83 -14 107.5 -74.5t14.5 -131.5q-13 -73 -63.5 -121t-115.5 -39q-86 14 -109 75t-12 131zM189 1698 q22 -48 58 -2q17 38 100 88q32 22 -4 36q-103 24 -146 -24q-27 -51 -8 -98zM425 1730q11 73 62 121t117 39q83 -14 107.5 -75t13.5 -131q-11 -73 -62 -121t-116 -39q-86 14 -109 75t-13 131zM486 1698q22 -48 58 -2q17 38 100 88q32 22 -4 36q-103 24 -146 -24 q-27 -51 -8 -98zM488 174q-1 -16 31 -30q88 -14 190 -8q40 30 6 50q-93 36 -197 19q-29 -15 -30 -31zM491.5 875q1.5 -16 27.5 -27q70 -5 149 11q27 34 -2 50q-77 27 -155 0q-21 -18 -19.5 -34z" />
<glyph unicode="&#xcc;" horiz-adv-x="489" d="M-4 1385q24 51 90.5 101.5t123.5 69.5q168 -152 235 -299q-14 -47 -50.5 -82.5t-81.5 -44.5q-191 98 -317 255zM43 540q3 142 10 488q-23 71 306 38l25 -10l16 -29q0 -230 -2 -315q4 -304 11 -708q-33 -36 -180.5 -41.5t-179.5 23.5q-12 314 -6 554zM82 1417 q-15 -50 42 -39q38 18 133 2q39 -4 21 30q-63 85 -127 77q-53 -22 -69 -70zM119 740q35 -119 58 -2q17 167 100 217q32 22 -4 36q-103 24 -146 -24q-27 -51 -8 -227z" />
<glyph unicode="&#xcd;" horiz-adv-x="489" d="M16 1235q98 190 254 315q51 -22 102.5 -88.5t68.5 -125.5q-151 -166 -298 -234q-48 13 -83 50.5t-44 82.5zM43 540q3 142 10 488q-23 71 306 38l25 -10l16 -29q0 -230 -2 -315q4 -304 11 -708q-33 -36 -180.5 -41.5t-179.5 23.5q-12 314 -6 554zM119 740q35 -119 58 -2 q17 167 100 217q32 22 -4 36q-103 24 -146 -24q-27 -51 -8 -227zM119 1292q22 -48 58 -2q70 46 153 96q18 16 -4 36q-45 49 -88 10q-110 -90 -119 -140z" />
<glyph unicode="&#xce;" horiz-adv-x="489" d="M-92 1231q86 115 233 246q93 23 175 6q94 -90 213 -267q-35 -64 -111 -113q-137 71 -184 104q-53 -38 -183 -91q-70 8 -143 115zM43 540q3 142 10 488q-23 71 306 38l25 -10l16 -29q0 -230 -2 -315q4 -304 11 -708q-33 -36 -180.5 -41.5t-179.5 23.5q-12 314 -6 554z M75 1320q22 -48 58 -2q70 46 153 96q32 22 -4 36q-103 24 -146 -24q-52 -56 -61 -106zM119 740q35 -119 58 -2q17 167 100 217q32 22 -4 36q-103 24 -146 -24q-27 -51 -8 -227z" />
<glyph unicode="&#xcf;" horiz-adv-x="489" d="M-58 1346q12 73 62 121t116 39q83 -14 107.5 -74.5t14.5 -131.5q-13 -73 -63.5 -121t-115.5 -39q-86 14 -109 75t-12 131zM2 1314q22 -48 58 -2q17 38 100 88q32 22 -4 36q-103 24 -146 -24q-27 -51 -8 -98zM43 540q3 142 10 488q-23 71 306 38l25 -10l16 -29 q0 -230 -2 -315q4 -304 11 -708q-33 -36 -180.5 -41.5t-179.5 23.5q-12 314 -6 554zM119 740q35 -119 58 -2q17 167 100 217q32 22 -4 36q-103 24 -146 -24q-27 -51 -8 -227zM238 1346q11 73 62 121t117 39q83 -14 107.5 -75t13.5 -131q-11 -73 -62 -121t-116 -39 q-86 14 -109 75t-13 131zM299 1314q22 -48 58 -2q17 38 100 88q32 22 -4 36q-103 24 -146 -24q-27 -51 -8 -98z" />
<glyph unicode="&#xd0;" horiz-adv-x="1518" />
<glyph unicode="&#xd1;" horiz-adv-x="1063" d="M31 1373q27 42 154 76.5t165 11.5q99 -160 264 -476q7 158 33 446q11 48 139.5 62t171.5 -45q25 -40 21.5 -703t-9.5 -696q-29 -43 -171.5 -82.5t-176.5 12.5q-78 247 -215 563q3 -254 -41 -616q-45 -25 -177 -21t-145 57q5 248 -10.5 641.5t-2.5 769.5zM96 1198 q14 -42 44 17q17 64 117 151q40 14 5 31q-98 -3 -152 -59q-31 -42 -14 -140zM115 1617q21 168 146 242q173 46 280 -87q27 -41 66 -17q20 30 21 75q11 47 93 44t115 -40q20 -248 -163 -336q-152 -55 -299 99q-10 10 -15 5q-14 -29 -37 -94q-38 -27 -120.5 12.5t-86.5 96.5z M191 1685q22 -48 58 -2q70 46 153 96q32 22 -4 36q-103 24 -146 -24q-52 -56 -61 -106zM705 1130q17 -52 57 4q23 106 79 246q37 26 -6 50q-113 5 -115 -47q-31 -111 -15 -253z" />
<glyph unicode="&#xd2;" horiz-adv-x="953" d="M42 915q41 368 97 478q18 47 77 67q262 68 415 7q56 -19 87 -61q70 -112 133 -461q22 -455 -55 -807q-38 -112 -161 -168q-339 -72 -452 12q-92 78 -131 410l2 1q-24 270 -12 522zM121 738q26 -85 53 16q45 378 115 517q79 101 202 109q63 2 -6 58q-191 24 -284 -98 q-123 -240 -80 -602zM176 1725q24 51 90.5 101.5t123.5 69.5q168 -152 235 -299q-14 -47 -50.5 -82.5t-81.5 -44.5q-191 98 -317 255zM262 1757q-15 -50 42 -39q38 18 133 2q39 -4 21 30q-63 85 -127 77q-53 -22 -69 -70zM362 891q-29 -239 19 -447q12 -52 33 -100 q31 -56 63 33q55 136 48 414q0 261 -73 366q-22 28 -35 5q-38 -124 -55 -271zM376 192q-5 -46 84 -26q112 23 114 134q-27 41 -47 7q-34 -47 -86 -57q-59 -8 -65 -58zM557 408q0 -19 7.5 -33t18.5 -15q12 0 20.5 13t9.5 32q1 20 -6.5 34t-18.5 14q-12 1 -21 -12.5t-10 -32.5 z" />
<glyph unicode="&#xd3;" horiz-adv-x="953" d="M42 915q41 368 97 478q18 47 77 67q262 68 415 7q56 -19 87 -61q70 -112 133 -461q22 -455 -55 -807q-38 -112 -161 -168q-339 -72 -452 12q-92 78 -131 410l2 1q-24 270 -12 522zM121 738q26 -85 53 16q45 378 115 517q79 101 202 109q63 2 -6 58q-191 24 -284 -98 q-123 -240 -80 -602zM232 1586q98 190 254 315q51 -22 102.5 -88.5t68.5 -125.5q-151 -166 -298 -234q-48 13 -83 50.5t-44 82.5zM335 1643q22 -48 58 -2q70 46 153 96q18 16 -4 36q-45 49 -88 10q-110 -90 -119 -140zM362 891q-29 -239 19 -447q12 -52 33 -100 q31 -56 63 33q55 136 48 414q0 261 -73 366q-22 28 -35 5q-38 -124 -55 -271zM376 192q-5 -46 84 -26q112 23 114 134q-27 41 -47 7q-34 -47 -86 -57q-59 -8 -65 -58zM557 408q0 -19 7.5 -33t18.5 -15q12 0 20.5 13t9.5 32q1 20 -6.5 34t-18.5 14q-12 1 -21 -12.5t-10 -32.5 z" />
<glyph unicode="&#xd4;" horiz-adv-x="953" d="M42 915q41 368 97 478q18 47 77 67q262 68 415 7q56 -19 87 -61q70 -112 133 -461q22 -455 -55 -807q-38 -112 -161 -168q-339 -72 -452 12q-92 78 -131 410l2 1q-24 270 -12 522zM121 738q26 -85 53 16q45 378 115 517q79 101 202 109q63 2 -6 58q-191 24 -284 -98 q-123 -240 -80 -602zM131 1633q86 115 233 246q93 23 175 6q94 -90 213 -267q-35 -64 -111 -113q-137 71 -184 104q-53 -38 -183 -91q-70 8 -143 115zM298 1722q22 -48 58 -2q70 46 153 96q32 22 -4 36q-103 24 -146 -24q-52 -56 -61 -106zM362 891q-29 -239 19 -447 q12 -52 33 -100q31 -56 63 33q55 136 48 414q0 261 -73 366q-22 28 -35 5q-38 -124 -55 -271zM376 192q-5 -46 84 -26q112 23 114 134q-27 41 -47 7q-34 -47 -86 -57q-59 -8 -65 -58zM557 408q0 -19 7.5 -33t18.5 -15q12 0 20.5 13t9.5 32q1 20 -6.5 34t-18.5 14 q-12 1 -21 -12.5t-10 -32.5z" />
<glyph unicode="&#xd5;" horiz-adv-x="953" d="M42 915q41 368 97 478q18 47 77 67q262 68 415 7q56 -19 87 -61q70 -112 133 -461q22 -455 -55 -807q-38 -112 -161 -168q-339 -72 -452 12q-92 78 -131 410l2 1q-24 270 -12 522zM70 1636q21 168 146 242q173 46 280 -87q27 -41 66 -17q20 30 21 75q11 47 93 44t115 -40 q20 -248 -163 -336q-152 -55 -299 99q-10 10 -15 5q-14 -29 -37 -94q-38 -27 -120.5 12.5t-86.5 96.5zM121 738q26 -85 53 16q45 378 115 517q79 101 202 109q63 2 -6 58q-191 24 -284 -98q-123 -240 -80 -602zM146 1704q22 -48 58 -2q70 46 153 96q32 22 -4 36 q-103 24 -146 -24q-52 -56 -61 -106zM362 891q-29 -239 19 -447q12 -52 33 -100q31 -56 63 33q55 136 48 414q0 261 -73 366q-22 28 -35 5q-38 -124 -55 -271zM376 192q-5 -46 84 -26q112 23 114 134q-27 41 -47 7q-34 -47 -86 -57q-59 -8 -65 -58zM557 408q0 -19 7.5 -33 t18.5 -15q12 0 20.5 13t9.5 32q1 20 -6.5 34t-18.5 14q-12 1 -21 -12.5t-10 -32.5z" />
<glyph unicode="&#xd6;" horiz-adv-x="953" d="M42 915q41 368 97 478q18 47 77 67q262 68 415 7q56 -19 87 -61q70 -112 133 -461q22 -455 -55 -807q-38 -112 -161 -168q-339 -72 -452 12q-92 78 -131 410l2 1q-24 270 -12 522zM121 738q26 -85 53 16q45 378 115 517q79 101 202 109q63 2 -6 58q-191 24 -284 -98 q-123 -240 -80 -602zM145 1730q12 73 62 121t116 39q83 -14 107.5 -74.5t14.5 -131.5q-13 -73 -63.5 -121t-115.5 -39q-86 14 -109 75t-12 131zM205 1698q22 -48 58 -2q17 38 100 88q32 22 -4 36q-103 24 -146 -24q-27 -51 -8 -98zM362 891q-29 -239 19 -447q12 -52 33 -100 q31 -56 63 33q55 136 48 414q0 261 -73 366q-22 28 -35 5q-38 -124 -55 -271zM376 192q-5 -46 84 -26q112 23 114 134q-27 41 -47 7q-34 -47 -86 -57q-59 -8 -65 -58zM441 1730q11 73 62 121t117 39q83 -14 107.5 -75t13.5 -131q-11 -73 -62 -121t-116 -39q-86 14 -109 75 t-13 131zM502 1698q22 -48 58 -2q17 38 100 88q32 22 -4 36q-103 24 -146 -24q-27 -51 -8 -98zM557 408q0 -19 7.5 -33t18.5 -15q12 0 20.5 13t9.5 32q1 20 -6.5 34t-18.5 14q-12 1 -21 -12.5t-10 -32.5z" />
<glyph unicode="&#xd8;" horiz-adv-x="1614" />
<glyph unicode="&#xd9;" horiz-adv-x="1002" d="M40 171q-26 1063 51 1258q32 74 184.5 55t149.5 -87q-36 -791 -18 -1024q30 -39 99.5 -31.5t71.5 36.5q8 393 -21 1014q-6 73 61 95q236 45 268 -33q31 -48 32 -710.5t-87 -711.5q-280 -186 -634 -59q-135 65 -157 198zM120 763q0 -16 8 -27.5t20 -11.5q11 0 19.5 11.5 t8.5 27.5t-8.5 27.5t-19.5 11.5q-12 0 -20 -11.5t-8 -27.5zM120 887q21 -69 61 12q5 362 67 459q36 17 84 22q18 13 -1 26q-85 34 -157 4q-63 -50 -54 -523zM173 1722q24 51 90.5 101.5t123.5 69.5q168 -152 235 -299q-14 -47 -50.5 -82.5t-81.5 -44.5q-191 98 -317 255z M259 1754q-15 -50 42 -39q38 18 133 2q39 -4 21 30q-63 85 -127 77q-53 -22 -69 -70zM447 237q-13 -44 79 -38q114 5 132 113q-20 46 -44 15q-41 -42 -94 -43q-59 1 -73 -47zM630 1411q-31 -74 13 -151q27 -48 30 13q28 96 116 128q31 -19 34 18q-109 56 -193 -8z" />
<glyph unicode="&#xda;" horiz-adv-x="1002" d="M40 171q-26 1063 51 1258q32 74 184.5 55t149.5 -87q-36 -791 -18 -1024q30 -39 99.5 -31.5t71.5 36.5q8 393 -21 1014q-6 73 61 95q236 45 268 -33q31 -48 32 -710.5t-87 -711.5q-280 -186 -634 -59q-135 65 -157 198zM120 763q0 -16 8 -27.5t20 -11.5q11 0 19.5 11.5 t8.5 27.5t-8.5 27.5t-19.5 11.5q-12 0 -20 -11.5t-8 -27.5zM120 887q21 -69 61 12q5 362 67 459q36 17 84 22q18 13 -1 26q-85 34 -157 4q-63 -50 -54 -523zM309 1584q98 190 254 315q51 -22 102.5 -88.5t68.5 -125.5q-151 -166 -298 -234q-48 13 -83 50.5t-44 82.5z M412 1641q22 -48 58 -2q70 46 153 96q18 16 -4 36q-45 49 -88 10q-110 -90 -119 -140zM447 237q-13 -44 79 -38q114 5 132 113q-20 46 -44 15q-41 -42 -94 -43q-59 1 -73 -47zM630 1411q-31 -74 13 -151q27 -48 30 13q28 96 116 128q31 -19 34 18q-109 56 -193 -8z" />
<glyph unicode="&#xdb;" horiz-adv-x="1002" d="M40 171q-26 1063 51 1258q32 74 184.5 55t149.5 -87q-36 -791 -18 -1024q30 -39 99.5 -31.5t71.5 36.5q8 393 -21 1014q-6 73 61 95q236 45 268 -33q31 -48 32 -710.5t-87 -711.5q-280 -186 -634 -59q-135 65 -157 198zM120 763q0 -16 8 -27.5t20 -11.5q11 0 19.5 11.5 t8.5 27.5t-8.5 27.5t-19.5 11.5q-12 0 -20 -11.5t-8 -27.5zM120 887q21 -69 61 12q5 362 67 459q36 17 84 22q18 13 -1 26q-85 34 -157 4q-63 -50 -54 -523zM142 1636q86 115 233 246q93 23 175 6q94 -90 213 -267q-35 -64 -111 -113q-137 71 -184 104q-53 -38 -183 -91 q-70 8 -143 115zM309 1725q22 -48 58 -2q70 46 153 96q32 22 -4 36q-103 24 -146 -24q-52 -56 -61 -106zM447 237q-13 -44 79 -38q114 5 132 113q-20 46 -44 15q-41 -42 -94 -43q-59 1 -73 -47zM630 1411q-31 -74 13 -151q27 -48 30 13q28 96 116 128q31 -19 34 18 q-109 56 -193 -8z" />
<glyph unicode="&#xdc;" horiz-adv-x="1002" d="M40 171q-26 1063 51 1258q32 74 184.5 55t149.5 -87q-36 -791 -18 -1024q30 -39 99.5 -31.5t71.5 36.5q8 393 -21 1014q-6 73 61 95q236 45 268 -33q31 -48 32 -710.5t-87 -711.5q-280 -186 -634 -59q-135 65 -157 198zM120 763q0 -16 8 -27.5t20 -11.5q11 0 19.5 11.5 t8.5 27.5t-8.5 27.5t-19.5 11.5q-12 0 -20 -11.5t-8 -27.5zM120 887q21 -69 61 12q5 362 67 459q36 17 84 22q18 13 -1 26q-85 34 -157 4q-63 -50 -54 -523zM172 1732q12 73 62 121t116 39q83 -14 107.5 -74.5t14.5 -131.5q-13 -73 -63.5 -121t-115.5 -39q-86 14 -109 75 t-12 131zM232 1700q22 -48 58 -2q17 38 100 88q32 22 -4 36q-103 24 -146 -24q-27 -51 -8 -98zM447 237q-13 -44 79 -38q114 5 132 113q-20 46 -44 15q-41 -42 -94 -43q-59 1 -73 -47zM468 1732q11 73 62 121t117 39q83 -14 107.5 -75t13.5 -131q-11 -73 -62 -121t-116 -39 q-86 14 -109 75t-13 131zM529 1700q22 -48 58 -2q17 38 100 88q32 22 -4 36q-103 24 -146 -24q-27 -51 -8 -98zM630 1411q-31 -74 13 -151q27 -48 30 13q28 96 116 128q31 -19 34 18q-109 56 -193 -8z" />
<glyph unicode="&#xdd;" horiz-adv-x="1233" />
<glyph unicode="&#xde;" horiz-adv-x="1120" />
<glyph unicode="&#xdf;" horiz-adv-x="1251" />
<glyph unicode="&#xe0;" horiz-adv-x="922" />
<glyph unicode="&#xe1;" horiz-adv-x="922" />
<glyph unicode="&#xe2;" horiz-adv-x="922" />
<glyph unicode="&#xe3;" horiz-adv-x="922" />
<glyph unicode="&#xe4;" horiz-adv-x="922" />
<glyph unicode="&#xe5;" horiz-adv-x="922" />
<glyph unicode="&#xe6;" horiz-adv-x="1454" />
<glyph unicode="&#xe7;" horiz-adv-x="905" />
<glyph unicode="&#xe8;" horiz-adv-x="909" />
<glyph unicode="&#xe9;" horiz-adv-x="909" />
<glyph unicode="&#xea;" horiz-adv-x="909" />
<glyph unicode="&#xeb;" horiz-adv-x="909" />
<glyph unicode="&#xec;" horiz-adv-x="514" />
<glyph unicode="&#xed;" horiz-adv-x="514" />
<glyph unicode="&#xee;" horiz-adv-x="514" />
<glyph unicode="&#xef;" horiz-adv-x="514" />
<glyph unicode="&#xf0;" horiz-adv-x="1139" />
<glyph unicode="&#xf1;" horiz-adv-x="1108" />
<glyph unicode="&#xf2;" horiz-adv-x="1010" />
<glyph unicode="&#xf3;" horiz-adv-x="1010" />
<glyph unicode="&#xf4;" horiz-adv-x="1010" />
<glyph unicode="&#xf5;" horiz-adv-x="1010" />
<glyph unicode="&#xf6;" horiz-adv-x="1010" />
<glyph unicode="&#xf8;" horiz-adv-x="1010" />
<glyph unicode="&#xf9;" horiz-adv-x="1059" />
<glyph unicode="&#xfa;" horiz-adv-x="1059" />
<glyph unicode="&#xfb;" horiz-adv-x="1059" />
<glyph unicode="&#xfc;" horiz-adv-x="1059" />
<glyph unicode="&#xfd;" horiz-adv-x="868" />
<glyph unicode="&#xfe;" horiz-adv-x="1010" />
<glyph unicode="&#xff;" horiz-adv-x="868" />
<glyph unicode="&#x2c6;" horiz-adv-x="731" d="M30 1617q86 115 233 246q93 23 175 6q94 -90 213 -267q-35 -64 -111 -113q-137 71 -184 104q-53 -38 -183 -91q-70 8 -143 115zM197 1706q22 -48 58 -2q70 46 153 96q32 22 -4 36q-103 24 -146 -24q-52 -56 -61 -106z" />
<glyph unicode="&#x2dc;" horiz-adv-x="848" d="M30 1617q21 168 146 242q173 46 280 -87q27 -41 66 -17q20 30 21 75q11 47 93 44t115 -40q20 -248 -163 -336q-152 -55 -299 99q-10 10 -15 5q-14 -29 -37 -94q-38 -27 -120.5 12.5t-86.5 96.5zM106 1685q22 -48 58 -2q70 46 153 96q32 22 -4 36q-103 24 -146 -24 q-52 -56 -61 -106z" />
<glyph unicode="&#x2000;" horiz-adv-x="951" />
<glyph unicode="&#x2001;" horiz-adv-x="1903" />
<glyph unicode="&#x2002;" horiz-adv-x="951" />
<glyph unicode="&#x2003;" horiz-adv-x="1903" />
<glyph unicode="&#x2004;" horiz-adv-x="634" />
<glyph unicode="&#x2005;" horiz-adv-x="475" />
<glyph unicode="&#x2006;" horiz-adv-x="317" />
<glyph unicode="&#x2007;" horiz-adv-x="317" />
<glyph unicode="&#x2008;" horiz-adv-x="237" />
<glyph unicode="&#x2009;" horiz-adv-x="380" />
<glyph unicode="&#x200a;" horiz-adv-x="105" />
<glyph unicode="&#x2010;" horiz-adv-x="807" d="M38.5 709.5q8.5 126.5 41.5 159.5q47 18 306 19.5t297 -12.5q44 -21 44 -174.5t-51 -165.5q-139 4 -309 -3t-299 12q-38 38 -29.5 164.5zM103 744q3 -80 21 -107q20 -16 37 14q13 67 73 100q95 22 292 31q64 7 61.5 20.5t-40.5 24.5q-240 15 -414 -3q-30 -25 -30 -80z " />
<glyph unicode="&#x2011;" horiz-adv-x="807" d="M38.5 709.5q8.5 126.5 41.5 159.5q47 18 306 19.5t297 -12.5q44 -21 44 -174.5t-51 -165.5q-139 4 -309 -3t-299 12q-38 38 -29.5 164.5zM103 744q3 -80 21 -107q20 -16 37 14q13 67 73 100q95 22 292 31q64 7 61.5 20.5t-40.5 24.5q-240 15 -414 -3q-30 -25 -30 -80z " />
<glyph unicode="&#x2012;" horiz-adv-x="807" d="M38.5 709.5q8.5 126.5 41.5 159.5q47 18 306 19.5t297 -12.5q44 -21 44 -174.5t-51 -165.5q-139 4 -309 -3t-299 12q-38 38 -29.5 164.5zM103 744q3 -80 21 -107q20 -16 37 14q13 67 73 100q95 22 292 31q64 7 61.5 20.5t-40.5 24.5q-240 15 -414 -3q-30 -25 -30 -80z " />
<glyph unicode="&#x2013;" horiz-adv-x="1108" />
<glyph unicode="&#x2014;" horiz-adv-x="2048" />
<glyph unicode="&#x2018;" horiz-adv-x="557" />
<glyph unicode="&#x2019;" horiz-adv-x="557" />
<glyph unicode="&#x201a;" horiz-adv-x="557" />
<glyph unicode="&#x201c;" horiz-adv-x="910" />
<glyph unicode="&#x201d;" horiz-adv-x="910" />
<glyph unicode="&#x201e;" horiz-adv-x="910" />
<glyph unicode="&#x2022;" horiz-adv-x="1024" />
<glyph unicode="&#x2026;" horiz-adv-x="2048" />
<glyph unicode="&#x202f;" horiz-adv-x="380" />
<glyph unicode="&#x2039;" horiz-adv-x="631" />
<glyph unicode="&#x203a;" horiz-adv-x="631" />
<glyph unicode="&#x205f;" horiz-adv-x="475" />
<glyph unicode="&#x20ac;" horiz-adv-x="1108" d="M61.5 578q31.5 109 53.5 119l61 -3q-5 14 -5 15q-29 1 -96 8q-45 38 -13.5 147t69.5 132h65q39 296 126 425q41 38 226 43t275 -41q142 -99 192 -186q19 -48 -42 -140.5t-107 -76.5q-170 40 -289 90q14 7 6 -108q48 1 234 0q53 -20 27.5 -151t-42.5 -111q-121 -9 -232 -1 l3 -23q51 1 244 0q53 -20 27.5 -151t-74.5 -141q-158 4 -177 3q12 -108 -5 -112q197 56 270 73q55 -2 113 -97t53 -130q-52 -97 -177 -168q-58 -24 -247.5 -25t-263.5 48q-49 36 -120 296q-20 67 -26 110q-43 2 -115 9q-45 38 -13.5 147zM298 1053q26 -85 53 16 q36 128 91 181q79 101 202 109q63 2 -6 58q-191 24 -284 -98q-70 -131 -56 -266z" />
<glyph unicode="&#x2122;" horiz-adv-x="1497" />
<glyph unicode="&#x25fc;" horiz-adv-x="500" d="M0 0z" />
</font>
</defs>
</svg>
